# xmcd
#
# Track frame offsets: 
#        150
#        14927
#        27467
#        39599
#        52381
#        67894
#        81993
#        96592
#        109885
#        123652
#        135233
#        164085
#        180510
#        199778
#        206312
#        220914
#        231713
#        245409
#        254443
#        266165
#        283182
#        296903
#
# Disc length: 4141 seconds
#
# Revision: 0
# Processed by: cddbd v1.5.2PL0 Copyright (c) Steve Scherf et al.
# Submitted via: ExactAudioCopy v0.95b2
#
DISCID=6d102b16
DTITLE=Various Artist - Blues Essentials
DYEAR=2004
DGENRE=Blues
TTITLE0=Muddy Waters - Rock Me
TTITLE1=John Lee Hooker - I Rule My Den
TTITLE2=Lightnin' Hopkins - Shotgun Blues
TTITLE3=Sonny Terry and Brownie McGhee - Airplane Blues
TTITLE4=Freddie King - Key To The Highway
TTITLE5=Mississippi Fred McDowell - Baby Please Don't Go
TTITLE6=George 'Harmonica' Smith - Juke
TTITLE7=Jimmy Rogers - Bad Luck Blues
TTITLE8=T-Bone Walker - Call It Stormy Monday But Tuesday Is Just As B
TTITLE8=ad
TTITLE9=Guitar Slim and His Playboys - New Arrival
TTITLE10=Son House - Between Midnight and Day
TTITLE11=Albert Ammons - Boogie Woogie Stomp
TTITLE12=Meade Lux Lewis - Honky Tonk Train Blues
TTITLE13=Memphis Slim - All This Piano Boogie
TTITLE14=Ella Mae Morse - Cow Cow Boogie
TTITLE15=Big Joe Turner - Jumpin' Tonight
TTITLE16=Nellie Lutcher - He's A Real Gone Guy
TTITLE17=Pee Wee Crayton - Blues Before Dawn
TTITLE18=Amos Milburn - Trouble In Mind
TTITLE19=Dinah Washington - The Blues Ain't Nothin' But A Woman Cryin'
TTITLE19=For Her Man
TTITLE20=Floyd Dixon - San Francisco Blues
TTITLE21=Nina Simone - Gin House Blues
EXTD=
EXTT0=
EXTT1=
EXTT2=
EXTT3=
EXTT4=
EXTT5=
EXTT6=
EXTT7=
EXTT8=
EXTT9=
EXTT10=
EXTT11=
EXTT12=
EXTT13=
EXTT14=
EXTT15=
EXTT16=
EXTT17=
EXTT18=
EXTT19=
EXTT20=
EXTT21=
PLAYORDER=
